<svg xmlns="http://www.w3.org/2000/svg" width="1123" height="794" stroke="#000" stroke-linecap="round" stroke-linejoin="round" fill="#fff" fill-rule="evenodd"><ellipse cx="559.5" cy="394.5" rx="560" ry="395"/><path d="M1039.5 556.7869c-36.668 5.4605-59.348.2403-79.6961-17.6441L815.097 421.9414l-20.921-16.2266-168.9966 133.8148c-19.3078 16.097-39.5633 23.1045-75.6 17.4074l216.4075-170.0504-201.475-153.6008c34.651-3.9478 58.5866-1.9359 79.8521 16.2266l150.0945 118.6584 151.2-118.0121c19.3735-16.0979 40.1974-22.2204 74.9734-16.282l-78.12 60.6277-105.84 80.6743c-12.6 9.2187-10.8679 15.5241.7241 24.4295L1039.5 556.7869zM31.7561 384.0456l17.6995-50.9666c48.1924-100.8647 245.7011-142.776 381.9049-80.4502 79.6024 36.6588 99.3834 88.5086 95.4485 146.5959H78.1241c-6.7434 104.549 121.8094 167.6503 285.7004 135.4544 57.4876-11.3039 91.3511-37.6528 108.2955-70.624 8.6029-16.5206 22.8399-19.1023 49.3655-14.3812-13.5466 41.2305-44.1044 75.676-108.6776 97.2333-96.4832 32.2679-234.204 21.83-306.6512-23.0149-43.1526-26.0179-60.984-58.9872-68.9887-94.2443-1.255-5.8274-3.775-11.3759-5.668-16.9625q.2561-14.3107.2561-28.6196zm47.1846-7.0041h405.4669c-2.6471-75.6021-83.0691-129.2992-192.9666-129.7592-120.6485-.5547-207.2689 51.8699-212.5003 129.7592z" stroke="none" fill="#000" fill-rule="nonzero"/></svg>